<svg xmlns="http://www.w3.org/2000/svg" height="12" width="15" viewBox="0 0 640 512"><!--!Font Awesome Free 6.6.0 by @fontawesome - https://fontawesome.com License - https://fontawesome.com/license/free Copyright 2024 Fonticons, Inc.--><path d="M256 336h0c0-16.2 1.3-8.7-85.1-181.5-17.7-35.3-68.2-35.4-85.9 0C-2.1 328.8 0 320.3 0 336H0c0 44.2 57.3 80 128 80s128-35.8 128-80zM128 176l72 144H56l72-144zm512 160c0-16.2 1.3-8.7-85.1-181.5-17.7-35.3-68.2-35.4-85.9 0-87.1 174.3-85 165.8-85 181.5H384c0 44.2 57.3 80 128 80s128-35.8 128-80h0zM440 320l72-144 72 144H440zm88 128H352V153.3c23.5-10.3 41.2-31.5 46.4-57.3H528c8.8 0 16-7.2 16-16V48c0-8.8-7.2-16-16-16H383.6C369 12.7 346.1 0 320 0s-49 12.7-63.6 32H112c-8.8 0-16 7.2-16 16v32c0 8.8 7.2 16 16 16h129.6c5.2 25.8 22.9 47 46.4 57.3V448H112c-8.8 0-16 7.2-16 16v32c0 8.8 7.2 16 16 16h416c8.8 0 16-7.2 16-16v-32c0-8.8-7.2-16-16-16z"/></svg>